<?xml version="1.0" encoding="utf-8"?>
<!-- Generator: Adobe Illustrator 27.5.0, SVG Export Plug-In . SVG Version: 6.00 Build 0)  -->
<svg version="1.1" id="Layer_1" xmlns="http://www.w3.org/2000/svg" xmlns:xlink="http://www.w3.org/1999/xlink" x="0px" y="0px"
	 viewBox="0 0 40 40" style="enable-background:new 0 0 40 40;" xml:space="preserve">
<style type="text/css">
	.st0{opacity:0.3;fill:#939393;}
	.st1{fill:#FFFFFF;}
</style>
<circle class="st0" cx="20" cy="20" r="19.1"/>
<path class="st1" d="M29.8,10.4c-5.1-5.1-13.3-5.1-18.4,0c-5.1,5.1-5.1,13.3,0,18.4c5.1,5.1,13.3,5.1,18.4,0
	C34.9,23.8,34.9,15.5,29.8,10.4z M29.2,11c1.8,1.8,2.9,4,3.4,6.4c-3.9-0.3-7.9,1-10.9,4c-0.5,0.5-1,1.1-1.4,1.7
	c-1-0.8-2-1.6-2.9-2.5c-0.2-0.2-0.5-0.5-0.7-0.7c0.7-1,1.5-1.9,2.4-2.7c2.9-2.9,6.3-5,9.9-6.3C29.1,10.9,29.1,10.9,29.2,11z
	 M28.3,10.2c-3.6,1.3-6.9,3.4-9.7,6.3c-0.9,0.9-1.7,1.8-2.4,2.7c-0.9-1-1.7-2.1-2.4-3.3c1.8-2.3,2.7-5.1,2.8-7.8
	C20.5,6.7,24.9,7.4,28.3,10.2z M11.9,11c1.1-1.1,2.4-2,3.8-2.6c-0.2,2.4-1,4.7-2.4,6.7c-0.7-1.2-1.3-2.4-1.8-3.7
	C11.6,11.3,11.8,11.2,11.9,11z M10.9,12.2c0.5,1.3,1.1,2.5,1.9,3.7c-0.3,0.3-0.5,0.6-0.8,0.9c-1.1,1.1-2.3,1.9-3.6,2.5
	C8.4,16.8,9.3,14.3,10.9,12.2z M8.4,20.2c1.5-0.7,2.9-1.6,4.1-2.9c0.2-0.2,0.5-0.5,0.7-0.7c0.7,1.1,1.6,2.2,2.5,3.3
	c-1.8,2.5-3.2,5.3-4,8.1C9.6,25.8,8.5,23,8.4,20.2z M12.3,28.6c0.8-2.9,2.1-5.7,3.9-8.2c0.2,0.2,0.4,0.4,0.6,0.6c1,1,2,1.8,3,2.6
	c-1.5,2.4-2.2,5.1-2.2,7.8C15.7,31.1,13.9,30.1,12.3,28.6z M29.2,28.3c-2.9,2.9-6.9,4-10.7,3.4c-0.1-2.6,0.6-5.2,2-7.5
	C23.2,26.1,26.2,27.4,29.2,28.3C29.2,28.3,29.2,28.3,29.2,28.3z M21,23.5c0.4-0.5,0.8-1.1,1.3-1.6c2.8-2.8,6.7-4.1,10.4-3.8
	c0.4,3.3-0.6,6.7-2.8,9.4C26.7,26.8,23.7,25.4,21,23.5z"/>
</svg>
