<?xml version="1.0" encoding="utf-8"?>
<!-- Generator: Adobe Illustrator 27.5.0, SVG Export Plug-In . SVG Version: 6.00 Build 0)  -->
<svg version="1.1" id="Capa_1" xmlns="http://www.w3.org/2000/svg" xmlns:xlink="http://www.w3.org/1999/xlink" x="0px" y="0px"
	 viewBox="0 0 800 800" style="enable-background:new 0 0 800 800;" xml:space="preserve">
<style type="text/css">
	.st0{fill:#636363;stroke:#636363;stroke-width:1.6553;stroke-miterlimit:6.6211;}
</style>
<g id="SVGRepo_bgCarrier">
</g>
<g id="SVGRepo_tracerCarrier">
</g>
<g id="SVGRepo_iconCarrier">
	<g>
		<g>
			<path class="st0" d="M702.3,95.6H97.8c-54,0-97.8,43.9-97.8,97.8v413.2c0,54,43.9,97.8,97.8,97.8h604.3c54,0,97.8-43.9,97.8-97.8
				v-413C800.2,139.6,756.3,95.6,702.3,95.6z M755.5,606.6c0,29.3-23.8,53.1-53.1,53.1H97.8c-29.3,0-53.1-23.8-53.1-53.1v-413
				c0-29.3,23.8-53.1,53.1-53.1h604.3c29.3,0,53.1,23.8,53.1,53.1v413H755.5z"/>
			<path class="st0" d="M504.5,394.9l195.7-175.5c9.1-8.3,9.9-22.3,1.7-31.6c-8.3-9.1-22.3-9.9-31.6-1.7L400.4,428.3l-52.6-47
				c-0.2-0.2-0.3-0.3-0.3-0.5c-1.2-1.2-2.3-2.2-3.6-3.1L129.6,186c-9.3-8.3-23.3-7.4-31.6,1.8s-7.4,23.3,1.8,31.6l198,177
				L100.6,580.9c-8.9,8.4-9.4,22.5-1,31.6c4.5,4.6,10.4,7.1,16.4,7.1c5.5,0,10.9-2,15.2-6l200.1-187.2l54.3,48.5
				c4.3,3.8,9.6,5.6,14.9,5.6s10.8-2,14.9-5.8l55.8-50l199,189c4.3,4.1,9.9,6.1,15.4,6.1c6,0,11.8-2.3,16.2-7
				c8.4-8.9,8.1-23.2-0.8-31.6L504.5,394.9z"/>
		</g>
	</g>
</g>
</svg>
