<?xml version="1.0" encoding="utf-8"?>
<!-- Generator: Adobe Illustrator 27.5.0, SVG Export Plug-In . SVG Version: 6.00 Build 0)  -->
<svg version="1.1" id="Capa_1" xmlns="http://www.w3.org/2000/svg" xmlns:xlink="http://www.w3.org/1999/xlink" x="0px" y="0px"
	 viewBox="0 0 800 800" style="enable-background:new 0 0 800 800;" xml:space="preserve">
<style type="text/css">
	.st0{fill:#636363;}
</style>
<g id="SVGRepo_bgCarrier">
</g>
<g id="SVGRepo_tracerCarrier">
</g>
<g id="SVGRepo_iconCarrier">
	<g>
		<path class="st0" d="M792.6,362.7L416.1,26.1c-0.7-0.7-1.3-1.2-2.1-1.6c-8.2-7.9-21.4-8.2-30.1-0.5L7.4,360.6
			c-9.2,8.2-9.9,22.2-1.8,31.4c4.4,4.9,10.5,7.4,16.6,7.4c5.3,0,10.5-1.8,14.8-5.6l67.8-60.7V345v175.7v205
			c0,30.8,25,55.9,55.9,55.9c0.5,0,0.8,0,1.3,0c0.5,0,0.8,0,1.3,0h116.2c29,0,52.5-23.5,52.5-52.5V529.6c0-4.4,3.6-8.1,8.1-8.1h120
			c4.4,0,8.1,3.6,8.1,8.1v199.6c0,29,23.5,52.5,52.5,52.5h118.8c31.3,0,55.9-30.8,55.9-70.1v-183v-55.9V335.3l67.8,60.7
			c4.3,3.8,9.5,5.6,14.8,5.6c6.1,0,12.2-2.5,16.6-7.4C802.5,385,801.7,371,792.6,362.7z M650.8,472.5v55.9v182.8
			c0,16-7.9,25.7-11.5,25.7H520.5c-4.4,0-8.1-3.6-8.1-8.1V529.6c0-29-23.5-52.5-52.5-52.5H340c-29,0-52.5,23.5-52.5,52.5v199.6
			c0,4.4-3.6,8.1-8.1,8.1H163.2c-0.5,0-0.8,0-1.3,0s-0.8,0-1.3,0c-6.3,0-11.5-5.1-11.5-11.5V520.5V344.8v-51.5L398.9,70.2
			l251.9,225.3L650.8,472.5L650.8,472.5z"/>
	</g>
</g>
</svg>
