<?xml version="1.0" encoding="utf-8"?>
<!-- Generator: Adobe Illustrator 27.5.0, SVG Export Plug-In . SVG Version: 6.00 Build 0)  -->
<svg version="1.1" id="Layer_1" xmlns="http://www.w3.org/2000/svg" xmlns:xlink="http://www.w3.org/1999/xlink" x="0px" y="0px"
	 viewBox="0 0 40 40" style="enable-background:new 0 0 40 40;" xml:space="preserve">
<style type="text/css">
	.st0{opacity:0.3;fill:#939393;}
	.st1{fill:#FFFFFF;}
</style>
<circle class="st0" cx="20" cy="20" r="19.1"/>
<g id="meat" transform="translate(315 3135)">
	<g id="Group_21" transform="translate(0 0)">
		<g id="Group_20">
			<path id="Path_23" class="st1" d="M-284.1-3121.7c-1.5-1.1-3.2-1.9-5-2.3c-4.1-1.1-8.7-1.3-10.5-1.3c-4.7,0-8.5,3.8-8.5,8.5v3.6
				c0,4.7,3.8,8.5,8.5,8.5c2.2,0,3.8-0.7,5.5-1.4c1.8-0.7,3.6-1.5,6.2-1.5c3.4,0,6.1-2.8,6.2-6.2v-3.6
				C-281.9-3119.1-282.6-3120.5-284.1-3121.7z M-284.5-3112.9c0.2,0.2,0.5,0.2,0.7,0c0.3-0.3,0.7-0.7,0.9-1.1v0.2
				c0,2.8-2.3,5.1-5.1,5.1c-2.8,0-4.7,0.8-6.6,1.6c-1.6,0.7-3.1,1.3-5.1,1.3c-3.9,0-7.2-3-7.4-7c1.5,2.7,4.3,4.4,7.4,4.4
				c2.2,0,3.8-0.7,5.5-1.4c1.8-0.7,3.6-1.5,6.2-1.5c0.2,0,0.4,0,0.6,0c0.3,0,0.5-0.2,0.5-0.5c0-0.3-0.2-0.5-0.5-0.5c0,0-0.1,0-0.1,0
				c-0.2,0-0.3,0-0.5,0c-2.8,0-4.7,0.8-6.6,1.6c-1.6,0.7-3.1,1.3-5.1,1.3c-4.1,0-7.4-3.3-7.4-7.4s3.3-7.4,7.4-7.4c0,0,0,0,0,0
				c1.8,0,6.3,0.1,10.3,1.2c4.3,1.2,6.5,3.1,6.5,5.7c0,1.4-0.6,2.8-1.6,3.7C-284.7-3113.4-284.7-3113.1-284.5-3112.9z"/>
		</g>
	</g>
	<g id="Group_23" transform="translate(51.798 28.875)">
		<g id="Group_22">
			<path id="Path_24" class="st1" d="M-336.7-3141.5c-0.1-0.3-0.4-0.4-0.7-0.2l0,0c-0.3,0.1-0.4,0.4-0.2,0.7s0.4,0.4,0.7,0.2
				C-336.7-3140.9-336.6-3141.2-336.7-3141.5L-336.7-3141.5z"/>
		</g>
	</g>
	<g id="Group_25" transform="translate(27.036 5.117)">
		<g id="Group_24">
			<path id="Path_25" class="st1" d="M-323-3128.2L-323-3128.2c-0.3,0-0.5,0.2-0.5,0.5c0,0.3,0.2,0.5,0.4,0.5h0c0,0,0,0,0,0
				c0.3,0,0.5-0.3,0.5-0.5C-322.6-3127.9-322.8-3128.2-323-3128.2L-323-3128.2z"/>
		</g>
	</g>
	<g id="Group_27" transform="translate(4.788 4.788)">
		<g id="Group_26">
			<path id="Path_26" class="st1" d="M-289-3123.5c-0.5-1-1.6-1.9-3.4-2.6c-1.3-0.5-2.6-0.9-4-1.1c-0.6-0.1-1.3-0.2-1.9-0.3
				c-0.3-0.1-0.6,0.1-0.6,0.4c-0.1,0.3,0.1,0.6,0.4,0.6c0,0,0,0,0.1,0c0.6,0.1,1.3,0.2,1.9,0.3c3.5,0.7,5.9,1.9,6.6,3.2
				c0.1,0.3,0.2,0.6,0.2,0.9c0,1.7-1.4,3.1-3.1,3.1c-1.7,0-3.4,0.3-5.1,0.9c-0.7,0.2-1.5,0.5-2.1,0.8c-0.5,0.2-0.9,0.4-1.4,0.6
				c-1,0.4-2,0.6-3,0.6c-3,0-5.4-2.4-5.4-5.4c0-3,2.4-5.4,5.4-5.4c0.6,0,1.2,0,1.7,0l0.3,0c0.3,0,0.5-0.2,0.5-0.5
				c0-0.3-0.2-0.5-0.5-0.5l-0.3,0c-0.6,0-1.2,0-1.8,0c-3.5,0-6.4,2.9-6.4,6.4c0,3.5,2.9,6.4,6.4,6.4c0,0,0,0,0,0
				c1.2,0,2.3-0.3,3.4-0.7c0.5-0.2,1-0.4,1.4-0.6c0.7-0.3,1.4-0.6,2.1-0.8c1.5-0.5,3.1-0.8,4.8-0.8c2.3,0,4.1-1.8,4.1-4.1
				C-288.7-3122.6-288.8-3123.1-289-3123.5z"/>
		</g>
	</g>
	<g id="Group_29" transform="translate(14.828 9.549)">
		<g id="Group_28">
			<path id="Path_27" class="st1" d="M-314-3130.7c-1.3,0.1-2.3,1.3-2.1,2.6c0.1,1.3,1.3,2.3,2.6,2.1c1.2-0.1,2.1-1.1,2.1-2.4
				C-311.5-3129.7-312.6-3130.8-314-3130.7z M-314-3127c-0.7-0.1-1.2-0.8-1.1-1.6s0.8-1.2,1.6-1.1c0.7,0.1,1.1,0.7,1.1,1.3
				C-312.5-3127.6-313.2-3127-314-3127z"/>
		</g>
	</g>
</g>
</svg>
