<?xml version="1.0" encoding="utf-8"?>
<!-- Generator: Adobe Illustrator 27.5.0, SVG Export Plug-In . SVG Version: 6.00 Build 0)  -->
<svg version="1.1" id="Layer_1" xmlns="http://www.w3.org/2000/svg" xmlns:xlink="http://www.w3.org/1999/xlink" x="0px" y="0px"
	 viewBox="0 0 800 800" style="enable-background:new 0 0 800 800;" xml:space="preserve">
<style type="text/css">
	.st0{fill-rule:evenodd;clip-rule:evenodd;fill:#FFFFFF;}
	.st1{opacity:0.35;fill-rule:evenodd;clip-rule:evenodd;fill:#8E8E8E;}
</style>
<g id="_x36_4px-Line">
	<path id="Shape" class="st0" d="M408.1,151.9c0-10.2-4-19.7-11.2-26.9s-16.9-11.1-27.1-11.1c-10.3,0-19.9,4-27.1,11.1l-65.8,65.2
		c-7.3,7.2-11.2,16.7-11.2,26.9s4,19.7,11.2,26.9c7.3,7.2,16.9,11.1,27.1,11.1c10.3,0,19.9-4,27.1-11.1l65.8-65.2
		C404.2,171.6,408.1,162.1,408.1,151.9L408.1,151.9z M327.2,240.2c-12.8,12.7-33.7,12.7-46.5,0c-12.8-12.7-12.8-33.4,0-46.1l31-30.7
		l46.5,46.1L327.2,240.2L327.2,240.2z M362.1,205.6l-46.5-46.1l31-30.7c6.4-6.4,14.8-9.5,23.3-9.5c8.4,0,16.9,3.2,23.3,9.5
		c12.8,12.7,12.8,33.4,0,46.1L362.1,205.6L362.1,205.6z"/>
	<path id="Shape_00000076568742430457352260000002588509491043924611_" class="st0" d="M350.4,132.7c-1.1,1.1-1.1,2.8,0,3.8
		c1.1,1.1,2.8,1.1,3.9,0c8.6-8.5,22.5-8.5,31,0c0.5,0.5,1.2,0.8,1.9,0.8s1.4-0.3,1.9-0.8c1.1-1.1,1.1-2.8,0-3.8
		C378.5,122.1,361.1,122.1,350.4,132.7L350.4,132.7z"/>
</g>
<ellipse class="st1" cx="336.9" cy="184.5" rx="90.9" ry="95.5"/>
</svg>
