<?xml version="1.0" encoding="utf-8"?>
<!-- Generator: Adobe Illustrator 27.5.0, SVG Export Plug-In . SVG Version: 6.00 Build 0)  -->
<svg version="1.1" id="Layer_1" xmlns="http://www.w3.org/2000/svg" xmlns:xlink="http://www.w3.org/1999/xlink" x="0px" y="0px"
	 viewBox="0 0 40 40" style="enable-background:new 0 0 40 40;" xml:space="preserve">
<style type="text/css">
	.st0{opacity:0.3;fill:#939393;}
	.st1{fill-rule:evenodd;clip-rule:evenodd;fill:#FFFFFF;}
</style>
<circle class="st0" cx="20.1" cy="20" r="19.1"/>
<g id="_x36_4px-Line">
	<path id="Shape" class="st1" d="M33.2,14c0-1.9-0.7-3.6-2.1-4.9s-3.1-2-5-2c-1.9,0-3.6,0.7-5,2L9.1,21c-1.3,1.3-2.1,3.1-2.1,4.9
		c0,1.9,0.7,3.6,2.1,4.9c1.3,1.3,3.1,2,5,2c1.9,0,3.6-0.7,5-2l12.1-12C32.5,17.6,33.2,15.9,33.2,14L33.2,14z M18.3,30.2
		c-2.3,2.3-6.2,2.3-8.5,0s-2.3-6.1,0-8.4l5.7-5.6l8.5,8.4L18.3,30.2L18.3,30.2z M24.7,23.9l-8.5-8.4l5.7-5.6C23.1,8.6,24.6,8,26.2,8
		c1.5,0,3.1,0.6,4.3,1.7c2.3,2.3,2.3,6.1,0,8.4L24.7,23.9L24.7,23.9z"/>
	<path id="Shape_00000076568742430457352260000002588509491043924611_" class="st1" d="M22.6,10.5c-0.2,0.2-0.2,0.5,0,0.7
		c0.2,0.2,0.5,0.2,0.7,0c1.6-1.6,4.1-1.6,5.7,0c0.1,0.1,0.2,0.1,0.3,0.1c0.1,0,0.3-0.1,0.3-0.1c0.2-0.2,0.2-0.5,0-0.7
		C27.7,8.6,24.6,8.6,22.6,10.5L22.6,10.5z"/>
</g>
</svg>
